<svg width="24" height="18" viewBox="0 0 24 18" fill="none" xmlns="http://www.w3.org/2000/svg">
<g clip-path="url(#clip0_24695_7990)">
<path d="M1.41184 5.67444L18.8684 16.1195C19.2067 16.3223 19.3243 16.7739 19.1307 17.1281C19.0051 17.3578 18.7718 17.4998 18.5191 17.5002H4.07008C3.35804 17.5002 2.7572 16.9451 2.6689 16.2054L1.41162 5.67466L1.41184 5.67444Z" fill="white"/>
<path d="M22.5881 5.67442L21.3308 16.2051C21.2425 16.9451 20.6417 17.5002 19.9296 17.5H5.4819C5.09209 17.5 4.77597 17.1693 4.77576 16.7612C4.77576 16.496 4.91136 16.2511 5.13112 16.1193L22.5883 5.67419L22.5881 5.67442Z" fill="white"/>
<path d="M12.0001 2.7178L19.7591 15.2161C20.1841 15.9005 19.9985 16.8162 19.3449 17.2611C19.1158 17.4169 18.8485 17.5 18.5753 17.4998H5.42455C4.64493 17.4998 4.0127 16.838 4.0127 16.0217C4.0127 15.7356 4.09183 15.4557 4.24074 15.2161L12.0001 2.7178Z" fill="white"/>
<path d="M12.0001 2.7178L19.7592 15.2161C20.1841 15.9005 19.9986 16.8162 19.345 17.2611C19.1159 17.4169 18.8486 17.5 18.5754 17.4998H12.0001V2.7178Z" fill="white"/>
<path d="M10.5883 1.97876C10.588 2.79526 11.2198 3.4573 11.9995 3.45753C12.7791 3.45775 13.4115 2.79617 13.4117 1.9799V1.97876C13.4122 1.16249 12.7802 0.500227 12.0005 0.5C11.2209 0.499774 10.5885 1.16136 10.5883 1.97763V1.97876Z" fill="white"/>
<path d="M21.1765 4.93515C21.1763 5.75166 21.8081 6.41369 22.5877 6.41392C23.3673 6.41414 23.9998 5.75256 24 4.93629V4.93515C24.0002 4.11865 23.3684 3.45662 22.5888 3.45639C21.8092 3.45616 21.1767 4.11775 21.1765 4.93402V4.93515Z" fill="white"/>
<path d="M0 4.93517C0 5.75167 0.631803 6.41348 1.41164 6.41371C2.19125 6.41371 2.82349 5.75213 2.82371 4.93562V4.93517C2.82371 4.11867 2.19191 3.45686 1.41207 3.45663C0.632239 3.45663 0 4.11844 0 4.93472C0 4.93472 0 4.93494 0 4.93517Z" fill="white"/>
</g>
<defs>
<clipPath id="clip0_24695_7990">
<rect width="24" height="17" fill="white" transform="translate(0 0.5)"/>
</clipPath>
</defs>
</svg>
